<?xml version="1.0" encoding="UTF-8" standalone="no"?>
<svg
   xmlns:dc="http://purl.org/dc/elements/1.1/"
   xmlns:cc="http://creativecommons.org/ns#"
   xmlns:rdf="http://www.w3.org/1999/02/22-rdf-syntax-ns#"
   xmlns:svg="http://www.w3.org/2000/svg"
   xmlns="http://www.w3.org/2000/svg"
   viewBox="0 0 644.19379 454.35361"
   height="454.35361"
   width="644.19379"
   xml:space="preserve"
   version="1.1"
   id="svg2"><metadata
     id="metadata8"><rdf:RDF><cc:Work
         rdf:about=""><dc:format>image/svg+xml</dc:format><dc:type
           rdf:resource="http://purl.org/dc/dcmitype/StillImage" /><dc:title></dc:title></cc:Work></rdf:RDF></metadata><defs
     id="defs6"><clipPath
       id="clipPath16"
       clipPathUnits="userSpaceOnUse"><path
         style="clip-rule:evenodd"
         id="path18"
         d="M 0,0 612,0 612,792 0,792 0,0 Z" /></clipPath></defs><g
     transform="matrix(1.25,0,0,-1.25,-48.684739,951.68413)"
     id="g10"><g
       id="g12"><g
         clip-path="url(#clipPath16)"
         id="g14"><path
           id="path20"
           style="fill:#ffffff;fill-opacity:1;fill-rule:evenodd;stroke:none"
           d="M 0,792 612,792 612,0 0,0 0,792 Z" /><path
           id="path22"
           style="fill:#729fcf;fill-opacity:1;fill-rule:evenodd;stroke:none"
           d="m 241.1,716.9 c 81.6,0 144,-62.4 144,-144 0,-81.7 -62.4,-144 -144,-144 -81.7,0 -144,62.3 -144,144 0,81.6 62.3,144 144,144 z m -144,0 0,0 z m 288,-288.1 0,0 z" /><g
           id="g24"><path
             id="path26"
             style="fill:none;stroke:#3465a4;stroke-width:0.80000001;stroke-linecap:butt;stroke-linejoin:round;stroke-miterlimit:10;stroke-dasharray:none;stroke-opacity:1"
             d="m 241.1,716.9 c 81.6,0 144,-62.4 144,-144 0,-81.7 -62.4,-144 -144,-144 -81.7,0 -144,62.3 -144,144 0,81.6 62.3,144 144,144 z" /></g><g
           id="g28"><path
             id="path30"
             style="fill:none;stroke:#3465a4;stroke-width:0.80000001;stroke-linecap:butt;stroke-linejoin:round;stroke-miterlimit:10;stroke-dasharray:none;stroke-opacity:1"
             d="m 97.1,716.9 0,0 z" /></g><g
           id="g32"><path
             id="path34"
             style="fill:none;stroke:#3465a4;stroke-width:0.80000001;stroke-linecap:butt;stroke-linejoin:round;stroke-miterlimit:10;stroke-dasharray:none;stroke-opacity:1"
             d="m 385.1,428.8 0,0 z" /></g><g
           id="g42"><text
             id="text44"
             style="font-variant:normal;font-weight:normal;font-size:18px;font-family:'Liberation Sans';-inkscape-font-specification:LiberationSans;writing-mode:lr-tb;fill:#000000;fill-opacity:1;fill-rule:nonzero;stroke:none"
             transform="matrix(1,0,0,-1,421.2,696)"><tspan
               id="tspan46"
               y="0"
               x="0 9.8999996 19.908001 24.893999 34.902 44.801998 59.796001 74.879997 79.865997 89.657997">15.90mm ± </tspan></text>
</g><g
           id="g48"><text
             id="text50"
             style="font-variant:normal;font-weight:normal;font-size:18px;font-family:'Liberation Sans';-inkscape-font-specification:LiberationSans;writing-mode:lr-tb;fill:#000000;fill-opacity:1;fill-rule:nonzero;stroke:none"
             transform="matrix(1,0,0,-1,421.2,675.8)"><tspan
               id="tspan52"
               y="0"
               x="0 9.8999996 14.976 24.875999 34.883999 49.877998 64.872002 69.858002 79.865997 85.860001 89.856003 99.755997">0.10mm grid </tspan></text>
</g><g
           id="g54"><text
             id="text56"
             style="font-variant:normal;font-weight:normal;font-size:18px;font-family:'Liberation Sans';-inkscape-font-specification:LiberationSans;writing-mode:lr-tb;fill:#000000;fill-opacity:1;fill-rule:nonzero;stroke:none"
             transform="matrix(1,0,0,-1,421.2,655.7)"><tspan
               id="tspan58"
               y="0"
               x="0 9.8999996 18.9 28.908001 34.902 39.888 49.896 59.796001 64.872002 68.867996 74.862 84.762001">over entire </tspan></text>
</g><g
           id="g60"><text
             id="text62"
             style="font-variant:normal;font-weight:normal;font-size:18px;font-family:'Liberation Sans';-inkscape-font-specification:LiberationSans;writing-mode:lr-tb;fill:#000000;fill-opacity:1;fill-rule:nonzero;stroke:none"
             transform="matrix(1,0,0,-1,421.2,635.5)"><tspan
               id="tspan64"
               y="0"
               x="0 12.6 22.5 27.576 37.476002">wafer</tspan></text>
</g><path
           id="path66"
           style="fill:#b80047;fill-opacity:1;fill-rule:evenodd;stroke:none"
           d="m 218.4,572.5 -22.4,0 0,44.6 44.7,0 0,-44.6 -22.3,0 z" /><g
           id="g68"><path
             id="path70"
             style="fill:none;stroke:#3465a4;stroke-width:0.80000001;stroke-linecap:butt;stroke-linejoin:round;stroke-miterlimit:10;stroke-dasharray:none;stroke-opacity:1"
             d="m 218.4,572.5 -22.4,0 0,44.6 44.7,0 0,-44.6 -22.3,0 z" /></g><path
           id="path72"
           style="fill:#b80047;fill-opacity:1;fill-rule:evenodd;stroke:none"
           d="m 262.3,572.4 -22.4,0 0,44.7 44.7,0 0,-44.7 -22.3,0 z" /><g
           id="g74"><path
             id="path76"
             style="fill:none;stroke:#3465a4;stroke-width:0.80000001;stroke-linecap:butt;stroke-linejoin:round;stroke-miterlimit:10;stroke-dasharray:none;stroke-opacity:1"
             d="m 262.3,572.4 -22.4,0 0,44.7 44.7,0 0,-44.7 -22.3,0 z" /></g><path
           id="path78"
           style="fill:#b80047;fill-opacity:1;fill-rule:evenodd;stroke:none"
           d="m 218.4,528.7 -22.4,0 0,44.6 44.7,0 0,-44.6 -22.3,0 z" /><g
           id="g80"><path
             id="path82"
             style="fill:none;stroke:#3465a4;stroke-width:0.80000001;stroke-linecap:butt;stroke-linejoin:round;stroke-miterlimit:10;stroke-dasharray:none;stroke-opacity:1"
             d="m 218.4,528.7 -22.4,0 0,44.6 44.7,0 0,-44.6 -22.3,0 z" /></g><path
           id="path84"
           style="fill:#b80047;fill-opacity:1;fill-rule:evenodd;stroke:none"
           d="m 262.3,528.7 -22.4,0 0,44.6 44.7,0 0,-44.6 -22.3,0 z" /><g
           id="g86"><path
             id="path88"
             style="fill:none;stroke:#3465a4;stroke-width:0.80000001;stroke-linecap:butt;stroke-linejoin:round;stroke-miterlimit:10;stroke-dasharray:none;stroke-opacity:1"
             d="m 262.3,528.7 -22.4,0 0,44.6 44.7,0 0,-44.6 -22.3,0 z" /></g><path
           id="path90"
           style="fill:#b80047;fill-opacity:1;fill-rule:evenodd;stroke:none"
           d="m 221.5,660.8 -22.3,0 0,44.6 44.6,0 0,-44.6 -22.3,0 z" /><g
           id="g92"><path
             id="path94"
             style="fill:none;stroke:#3465a4;stroke-width:0.80000001;stroke-linecap:butt;stroke-linejoin:round;stroke-miterlimit:10;stroke-dasharray:none;stroke-opacity:1"
             d="m 221.5,660.8 -22.3,0 0,44.6 44.6,0 0,-44.6 -22.3,0 z" /></g><path
           id="path96"
           style="fill:#b80047;fill-opacity:1;fill-rule:evenodd;stroke:none"
           d="m 265.4,660.8 -22.3,0 0,44.6 44.6,0 0,-44.6 -22.3,0 z" /><g
           id="g98"><path
             id="path100"
             style="fill:none;stroke:#3465a4;stroke-width:0.80000001;stroke-linecap:butt;stroke-linejoin:round;stroke-miterlimit:10;stroke-dasharray:none;stroke-opacity:1"
             d="m 265.4,660.8 -22.3,0 0,44.6 44.6,0 0,-44.6 -22.3,0 z" /></g><path
           id="path102"
           style="fill:#b80047;fill-opacity:1;fill-rule:evenodd;stroke:none"
           d="m 221.5,617 -22.3,0 0,44.7 44.6,0 0,-44.7 -22.3,0 z" /><g
           id="g104"><path
             id="path106"
             style="fill:none;stroke:#3465a4;stroke-width:0.80000001;stroke-linecap:butt;stroke-linejoin:round;stroke-miterlimit:10;stroke-dasharray:none;stroke-opacity:1"
             d="m 221.5,617 -22.3,0 0,44.7 44.6,0 0,-44.7 -22.3,0 z" /></g><path
           id="path108"
           style="fill:#b80047;fill-opacity:1;fill-rule:evenodd;stroke:none"
           d="m 265.4,617 -22.3,0 0,44.6 44.6,0 0,-44.6 -22.3,0 z" /><g
           id="g110"><path
             id="path112"
             style="fill:none;stroke:#3465a4;stroke-width:0.80000001;stroke-linecap:butt;stroke-linejoin:round;stroke-miterlimit:10;stroke-dasharray:none;stroke-opacity:1"
             d="m 265.4,617 -22.3,0 0,44.6 44.6,0 0,-44.6 -22.3,0 z" /></g><path
           id="path114"
           style="fill:#b80047;fill-opacity:1;fill-rule:evenodd;stroke:none"
           d="m 218.4,660.8 -22.4,0 0,44.6 44.7,0 0,-44.6 -22.3,0 z" /><g
           id="g116"><path
             id="path118"
             style="fill:none;stroke:#3465a4;stroke-width:0.80000001;stroke-linecap:butt;stroke-linejoin:round;stroke-miterlimit:10;stroke-dasharray:none;stroke-opacity:1"
             d="m 218.4,660.8 -22.4,0 0,44.6 44.7,0 0,-44.6 -22.3,0 z" /></g><path
           id="path120"
           style="fill:#b80047;fill-opacity:1;fill-rule:evenodd;stroke:none"
           d="m 262.3,660.8 -22.4,0 0,44.6 44.7,0 0,-44.6 -22.3,0 z" /><g
           id="g122"><path
             id="path124"
             style="fill:none;stroke:#3465a4;stroke-width:0.80000001;stroke-linecap:butt;stroke-linejoin:round;stroke-miterlimit:10;stroke-dasharray:none;stroke-opacity:1"
             d="m 262.3,660.8 -22.4,0 0,44.6 44.7,0 0,-44.6 -22.3,0 z" /></g><path
           id="path126"
           style="fill:#b80047;fill-opacity:1;fill-rule:evenodd;stroke:none"
           d="m 218.4,617 -22.4,0 0,44.7 44.7,0 0,-44.7 -22.3,0 z" /><g
           id="g128"><path
             id="path130"
             style="fill:none;stroke:#3465a4;stroke-width:0.80000001;stroke-linecap:butt;stroke-linejoin:round;stroke-miterlimit:10;stroke-dasharray:none;stroke-opacity:1"
             d="m 218.4,617 -22.4,0 0,44.7 44.7,0 0,-44.7 -22.3,0 z" /></g><path
           id="path132"
           style="fill:#b80047;fill-opacity:1;fill-rule:evenodd;stroke:none"
           d="m 262.3,617 -22.4,0 0,44.6 44.7,0 0,-44.6 -22.3,0 z" /><g
           id="g134"><path
             id="path136"
             style="fill:none;stroke:#3465a4;stroke-width:0.80000001;stroke-linecap:butt;stroke-linejoin:round;stroke-miterlimit:10;stroke-dasharray:none;stroke-opacity:1"
             d="m 262.3,617 -22.4,0 0,44.6 44.7,0 0,-44.6 -22.3,0 z" /></g><path
           id="path138"
           style="fill:#b80047;fill-opacity:1;fill-rule:evenodd;stroke:none"
           d="m 218.4,483.8 -22.4,0 0,44.6 44.7,0 0,-44.6 -22.3,0 z" /><g
           id="g140"><path
             id="path142"
             style="fill:none;stroke:#3465a4;stroke-width:0.80000001;stroke-linecap:butt;stroke-linejoin:round;stroke-miterlimit:10;stroke-dasharray:none;stroke-opacity:1"
             d="m 218.4,483.8 -22.4,0 0,44.6 44.7,0 0,-44.6 -22.3,0 z" /></g><path
           id="path144"
           style="fill:#b80047;fill-opacity:1;fill-rule:evenodd;stroke:none"
           d="m 262.3,483.8 -22.4,0 0,44.6 44.7,0 0,-44.6 -22.3,0 z" /><g
           id="g146"><path
             id="path148"
             style="fill:none;stroke:#3465a4;stroke-width:0.80000001;stroke-linecap:butt;stroke-linejoin:round;stroke-miterlimit:10;stroke-dasharray:none;stroke-opacity:1"
             d="m 262.3,483.8 -22.4,0 0,44.6 44.7,0 0,-44.6 -22.3,0 z" /></g><path
           id="path150"
           style="fill:#b80047;fill-opacity:1;fill-rule:evenodd;stroke:none"
           d="m 218.4,440 -22.4,0 0,44.7 44.7,0 0,-44.7 -22.3,0 z" /><g
           id="g152"><path
             id="path154"
             style="fill:none;stroke:#3465a4;stroke-width:0.80000001;stroke-linecap:butt;stroke-linejoin:round;stroke-miterlimit:10;stroke-dasharray:none;stroke-opacity:1"
             d="m 218.4,440 -22.4,0 0,44.7 44.7,0 0,-44.7 -22.3,0 z" /></g><path
           id="path156"
           style="fill:#b80047;fill-opacity:1;fill-rule:evenodd;stroke:none"
           d="m 262.3,440 -22.4,0 0,44.6 44.7,0 0,-44.6 -22.3,0 z" /><g
           id="g158"><path
             id="path160"
             style="fill:none;stroke:#3465a4;stroke-width:0.80000001;stroke-linecap:butt;stroke-linejoin:round;stroke-miterlimit:10;stroke-dasharray:none;stroke-opacity:1"
             d="m 262.3,440 -22.4,0 0,44.6 44.7,0 0,-44.6 -22.3,0 z" /></g><path
           id="path162"
           style="fill:#b80047;fill-opacity:1;fill-rule:evenodd;stroke:none"
           d="m 306.7,572.5 -22.4,0 0,44.6 44.7,0 0,-44.6 -22.3,0 z" /><g
           id="g164"><path
             id="path166"
             style="fill:none;stroke:#3465a4;stroke-width:0.80000001;stroke-linecap:butt;stroke-linejoin:round;stroke-miterlimit:10;stroke-dasharray:none;stroke-opacity:1"
             d="m 306.7,572.5 -22.4,0 0,44.6 44.7,0 0,-44.6 -22.3,0 z" /></g><path
           id="path168"
           style="fill:#b80047;fill-opacity:1;fill-rule:evenodd;stroke:none"
           d="m 350.6,572.4 -22.3,0 0,44.7 44.6,0 0,-44.7 -22.3,0 z" /><g
           id="g170"><path
             id="path172"
             style="fill:none;stroke:#3465a4;stroke-width:0.80000001;stroke-linecap:butt;stroke-linejoin:round;stroke-miterlimit:10;stroke-dasharray:none;stroke-opacity:1"
             d="m 350.6,572.4 -22.3,0 0,44.7 44.6,0 0,-44.7 -22.3,0 z" /></g><path
           id="path174"
           style="fill:#b80047;fill-opacity:1;fill-rule:evenodd;stroke:none"
           d="m 306.7,528.7 -22.4,0 0,44.6 44.7,0 0,-44.6 -22.3,0 z" /><g
           id="g176"><path
             id="path178"
             style="fill:none;stroke:#3465a4;stroke-width:0.80000001;stroke-linecap:butt;stroke-linejoin:round;stroke-miterlimit:10;stroke-dasharray:none;stroke-opacity:1"
             d="m 306.7,528.7 -22.4,0 0,44.6 44.7,0 0,-44.6 -22.3,0 z" /></g><path
           id="path180"
           style="fill:#b80047;fill-opacity:1;fill-rule:evenodd;stroke:none"
           d="m 350.6,528.7 -22.3,0 0,44.6 44.6,0 0,-44.6 -22.3,0 z" /><g
           id="g182"><path
             id="path184"
             style="fill:none;stroke:#3465a4;stroke-width:0.80000001;stroke-linecap:butt;stroke-linejoin:round;stroke-miterlimit:10;stroke-dasharray:none;stroke-opacity:1"
             d="m 350.6,528.7 -22.3,0 0,44.6 44.6,0 0,-44.6 -22.3,0 z" /></g><path
           id="path186"
           style="fill:#b80047;fill-opacity:1;fill-rule:evenodd;stroke:none"
           d="m 306.7,660.8 -22.4,0 0,44.6 44.7,0 0,-44.6 -22.3,0 z" /><g
           id="g188"><path
             id="path190"
             style="fill:none;stroke:#3465a4;stroke-width:0.80000001;stroke-linecap:butt;stroke-linejoin:round;stroke-miterlimit:10;stroke-dasharray:none;stroke-opacity:1"
             d="m 306.7,660.8 -22.4,0 0,44.6 44.7,0 0,-44.6 -22.3,0 z" /></g><path
           id="path192"
           style="fill:#b80047;fill-opacity:1;fill-rule:evenodd;stroke:none"
           d="m 306.7,617 -22.4,0 0,44.7 44.7,0 0,-44.7 -22.3,0 z" /><g
           id="g194"><path
             id="path196"
             style="fill:none;stroke:#3465a4;stroke-width:0.80000001;stroke-linecap:butt;stroke-linejoin:round;stroke-miterlimit:10;stroke-dasharray:none;stroke-opacity:1"
             d="m 306.7,617 -22.4,0 0,44.7 44.7,0 0,-44.7 -22.3,0 z" /></g><path
           id="path198"
           style="fill:#b80047;fill-opacity:1;fill-rule:evenodd;stroke:none"
           d="m 350.6,617 -22.3,0 0,44.6 44.6,0 0,-44.6 -22.3,0 z" /><g
           id="g200"><path
             id="path202"
             style="fill:none;stroke:#3465a4;stroke-width:0.80000001;stroke-linecap:butt;stroke-linejoin:round;stroke-miterlimit:10;stroke-dasharray:none;stroke-opacity:1"
             d="m 350.6,617 -22.3,0 0,44.6 44.6,0 0,-44.6 -22.3,0 z" /></g><path
           id="path204"
           style="fill:#b80047;fill-opacity:1;fill-rule:evenodd;stroke:none"
           d="m 306.7,483.8 -22.4,0 0,44.6 44.7,0 0,-44.6 -22.3,0 z" /><g
           id="g206"><path
             id="path208"
             style="fill:none;stroke:#3465a4;stroke-width:0.80000001;stroke-linecap:butt;stroke-linejoin:round;stroke-miterlimit:10;stroke-dasharray:none;stroke-opacity:1"
             d="m 306.7,483.8 -22.4,0 0,44.6 44.7,0 0,-44.6 -22.3,0 z" /></g><path
           id="path210"
           style="fill:#b80047;fill-opacity:1;fill-rule:evenodd;stroke:none"
           d="m 350.6,483.8 -22.3,0 0,44.6 44.6,0 0,-44.6 -22.3,0 z" /><g
           id="g212"><path
             id="path214"
             style="fill:none;stroke:#3465a4;stroke-width:0.80000001;stroke-linecap:butt;stroke-linejoin:round;stroke-miterlimit:10;stroke-dasharray:none;stroke-opacity:1"
             d="m 350.6,483.8 -22.3,0 0,44.6 44.6,0 0,-44.6 -22.3,0 z" /></g><path
           id="path216"
           style="fill:#b80047;fill-opacity:1;fill-rule:evenodd;stroke:none"
           d="m 306.7,440 -22.4,0 0,44.7 44.7,0 0,-44.7 -22.3,0 z" /><g
           id="g218"><path
             id="path220"
             style="fill:none;stroke:#3465a4;stroke-width:0.80000001;stroke-linecap:butt;stroke-linejoin:round;stroke-miterlimit:10;stroke-dasharray:none;stroke-opacity:1"
             d="m 306.7,440 -22.4,0 0,44.7 44.7,0 0,-44.7 -22.3,0 z" /></g><path
           id="path222"
           style="fill:#b80047;fill-opacity:1;fill-rule:evenodd;stroke:none"
           d="m 129.7,572.5 -22.4,0 0,44.6 44.7,0 0,-44.6 -22.3,0 z" /><g
           id="g224"><path
             id="path226"
             style="fill:none;stroke:#3465a4;stroke-width:0.80000001;stroke-linecap:butt;stroke-linejoin:round;stroke-miterlimit:10;stroke-dasharray:none;stroke-opacity:1"
             d="m 129.7,572.5 -22.4,0 0,44.6 44.7,0 0,-44.6 -22.3,0 z" /></g><path
           id="path228"
           style="fill:#b80047;fill-opacity:1;fill-rule:evenodd;stroke:none"
           d="m 173.6,572.4 -22.3,0 0,44.7 44.6,0 0,-44.7 -22.3,0 z" /><g
           id="g230"><path
             id="path232"
             style="fill:none;stroke:#3465a4;stroke-width:0.80000001;stroke-linecap:butt;stroke-linejoin:round;stroke-miterlimit:10;stroke-dasharray:none;stroke-opacity:1"
             d="m 173.6,572.4 -22.3,0 0,44.7 44.6,0 0,-44.7 -22.3,0 z" /></g><path
           id="path234"
           style="fill:#b80047;fill-opacity:1;fill-rule:evenodd;stroke:none"
           d="m 129.7,528.7 -22.4,0 0,44.6 44.7,0 0,-44.6 -22.3,0 z" /><g
           id="g236"><path
             id="path238"
             style="fill:none;stroke:#3465a4;stroke-width:0.80000001;stroke-linecap:butt;stroke-linejoin:round;stroke-miterlimit:10;stroke-dasharray:none;stroke-opacity:1"
             d="m 129.7,528.7 -22.4,0 0,44.6 44.7,0 0,-44.6 -22.3,0 z" /></g><path
           id="path240"
           style="fill:#b80047;fill-opacity:1;fill-rule:evenodd;stroke:none"
           d="m 173.6,528.7 -22.3,0 0,44.6 44.6,0 0,-44.6 -22.3,0 z" /><g
           id="g242"><path
             id="path244"
             style="fill:none;stroke:#3465a4;stroke-width:0.80000001;stroke-linecap:butt;stroke-linejoin:round;stroke-miterlimit:10;stroke-dasharray:none;stroke-opacity:1"
             d="m 173.6,528.7 -22.3,0 0,44.6 44.6,0 0,-44.6 -22.3,0 z" /></g><path
           id="path246"
           style="fill:#b80047;fill-opacity:1;fill-rule:evenodd;stroke:none"
           d="m 174.6,617 -22.4,0 0,44.7 44.7,0 0,-44.7 -22.3,0 z" /><g
           id="g248"><path
             id="path250"
             style="fill:none;stroke:#3465a4;stroke-width:0.80000001;stroke-linecap:butt;stroke-linejoin:round;stroke-miterlimit:10;stroke-dasharray:none;stroke-opacity:1"
             d="m 174.6,617 -22.4,0 0,44.7 44.7,0 0,-44.7 -22.3,0 z" /></g><path
           id="path252"
           style="fill:#b80047;fill-opacity:1;fill-rule:evenodd;stroke:none"
           d="m 174.6,483.8 -22.3,0 0,44.6 44.6,0 0,-44.6 -22.3,0 z" /><g
           id="g254"><path
             id="path256"
             style="fill:none;stroke:#3465a4;stroke-width:0.80000001;stroke-linecap:butt;stroke-linejoin:round;stroke-miterlimit:10;stroke-dasharray:none;stroke-opacity:1"
             d="m 174.6,483.8 -22.3,0 0,44.6 44.6,0 0,-44.6 -22.3,0 z" /></g><g
           id="g258"><path
             id="path260"
             style="fill:none;stroke:#3465a4;stroke-width:0.80000001;stroke-linecap:butt;stroke-linejoin:round;stroke-miterlimit:10;stroke-dasharray:none;stroke-opacity:1"
             d="m 239.9,736.8 0,-329.5" /></g><g
           id="g262"><path
             id="path264"
             style="fill:none;stroke:#3465a4;stroke-width:0.80000001;stroke-linecap:butt;stroke-linejoin:round;stroke-miterlimit:10;stroke-dasharray:none;stroke-opacity:1"
             d="m 71.5,573.2 343.9,0" /></g><g
           id="g266"><text
             id="text268"
             style="font-variant:normal;font-weight:normal;font-size:14px;font-family:'Liberation Sans';-inkscape-font-specification:LiberationSans;writing-mode:lr-tb;fill:#000000;fill-opacity:1;fill-rule:nonzero;stroke:none"
             transform="matrix(1,0,0,-1,425.7,572.1)"><tspan
               id="tspan270"
               y="0"
               x="0 7.7839999 10.878 18.662001 26.445999 30.436001 34.327999 42.112 46.801998 54.585999 62.369999 70.153999 77.938004">Line through </tspan></text>
</g><g
           id="g272"><text
             id="text274"
             style="font-variant:normal;font-weight:normal;font-size:14px;font-family:'Liberation Sans';-inkscape-font-specification:LiberationSans;writing-mode:lr-tb;fill:#000000;fill-opacity:1;fill-rule:nonzero;stroke:none"
             transform="matrix(1,0,0,-1,425.7,556.4)"><tspan
               id="tspan276"
               y="0"
               x="0 7.0840001 14.868 22.652 26.544001 34.327999 39.018002 43.007999 50.792 54.683998 58.674 68.571999 76.356003 80.346001 88.129997">center of wafer</tspan></text>
</g></g></g><rect
       transform="scale(1,-1)"
       y="-760.5473"
       x="39.747791"
       height="361.88287"
       width="513.755"
       id="rect3872"
       style="opacity:1;fill:none;fill-opacity:1;stroke:#86ca26;stroke-width:1.60000002;stroke-miterlimit:4;stroke-dasharray:none;stroke-opacity:1" /></g></svg>
