<?xml version="1.0" encoding="UTF-8" standalone="no"?>
<svg
   xmlns:dc="http://purl.org/dc/elements/1.1/"
   xmlns:cc="http://creativecommons.org/ns#"
   xmlns:rdf="http://www.w3.org/1999/02/22-rdf-syntax-ns#"
   xmlns:svg="http://www.w3.org/2000/svg"
   xmlns="http://www.w3.org/2000/svg"
   viewBox="0 0 571.52057 420.24167"
   height="420.24167"
   width="571.52057"
   xml:space="preserve"
   version="1.1"
   id="svg3604"><metadata
     id="metadata3610"><rdf:RDF><cc:Work
         rdf:about=""><dc:format>image/svg+xml</dc:format><dc:type
           rdf:resource="http://purl.org/dc/dcmitype/StillImage" /><dc:title></dc:title></cc:Work></rdf:RDF></metadata><defs
     id="defs3608"><clipPath
       id="clipPath3618"
       clipPathUnits="userSpaceOnUse"><path
         style="clip-rule:evenodd"
         id="path3620"
         d="M 0,0 612,0 612,792 0,792 0,0 Z" /></clipPath></defs><g
     transform="matrix(1.25,0,0,-1.25,-70.190071,965.03221)"
     id="g3612"><g
       id="g3614"><g
         clip-path="url(#clipPath3618)"
         id="g3616"><path
           id="path3622"
           style="fill:#ffffff;fill-opacity:1;fill-rule:evenodd;stroke:none"
           d="M 0,792 612,792 612,0 0,0 0,792 Z" /><path
           id="path3624"
           style="fill:#99ccff;fill-opacity:1;fill-rule:evenodd;stroke:none"
           d="m 244.3,739.8 c 80.4,0 141.7,-61.4 141.7,-141.7 0,-80.4 -61.3,-141.8 -141.7,-141.8 -80.4,0 -141.7,61.4 -141.7,141.8 0,80.3 61.3,141.7 141.7,141.7 z m -141.7,0 0,0 z m 283.5,-283.5 0,0 z" /><g
           id="g3626"><path
             id="path3628"
             style="fill:none;stroke:#000000;stroke-width:0.80000001;stroke-linecap:butt;stroke-linejoin:round;stroke-miterlimit:10;stroke-dasharray:none;stroke-opacity:1"
             d="m 244.3,739.8 c 80.4,0 141.7,-61.4 141.7,-141.7 0,-80.4 -61.3,-141.8 -141.7,-141.8 -80.4,0 -141.7,61.4 -141.7,141.8 0,80.3 61.3,141.7 141.7,141.7 z" /></g><g
           id="g3630"><path
             id="path3632"
             style="fill:none;stroke:#000000;stroke-width:0.80000001;stroke-linecap:butt;stroke-linejoin:round;stroke-miterlimit:10;stroke-dasharray:none;stroke-opacity:1"
             d="m 102.6,739.8 0,0 z" /></g><g
           id="g3634"><path
             id="path3636"
             style="fill:none;stroke:#000000;stroke-width:0.80000001;stroke-linecap:butt;stroke-linejoin:round;stroke-miterlimit:10;stroke-dasharray:none;stroke-opacity:1"
             d="m 386.1,456.3 0,0 z" /></g><path
           id="path3638"
           style="fill:#5c8526;fill-opacity:1;fill-rule:evenodd;stroke:none"
           d="m 272.4,481.2 -49.6,0 0,45.3 99.2,0 0,-45.3 -49.6,0 z" /><g
           id="g3640"><path
             id="path3642"
             style="fill:none;stroke:#000000;stroke-width:0.80000001;stroke-linecap:butt;stroke-linejoin:round;stroke-miterlimit:10;stroke-dasharray:none;stroke-opacity:1"
             d="m 272.4,481.2 -49.6,0 0,45.3 99.2,0 0,-45.3 -49.6,0 z" /></g><path
           id="path3644"
           style="fill:#5c8526;fill-opacity:1;fill-rule:evenodd;stroke:none"
           d="m 171.6,527.8 -49.6,0 0,45.4 99.2,0 0,-45.4 -49.6,0 z" /><g
           id="g3646"><path
             id="path3648"
             style="fill:none;stroke:#000000;stroke-width:0.80000001;stroke-linecap:butt;stroke-linejoin:round;stroke-miterlimit:10;stroke-dasharray:none;stroke-opacity:1"
             d="m 171.6,527.8 -49.6,0 0,45.4 99.2,0 0,-45.4 -49.6,0 z" /></g><path
           id="path3650"
           style="fill:#5c8526;fill-opacity:1;fill-rule:evenodd;stroke:none"
           d="m 272.3,527.9 -49.6,0 0,45.4 99.2,0 0,-45.4 -49.6,0 z" /><g
           id="g3652"><path
             id="path3654"
             style="fill:none;stroke:#000000;stroke-width:0.80000001;stroke-linecap:butt;stroke-linejoin:round;stroke-miterlimit:10;stroke-dasharray:none;stroke-opacity:1"
             d="m 272.3,527.9 -49.6,0 0,45.4 99.2,0 0,-45.4 -49.6,0 z" /></g><path
           id="path3656"
           style="fill:#5c8526;fill-opacity:1;fill-rule:evenodd;stroke:none"
           d="m 171.6,621.9 -49.6,0 0,45.3 99.2,0 0,-45.3 -49.6,0 z" /><g
           id="g3658"><path
             id="path3660"
             style="fill:none;stroke:#000000;stroke-width:0.80000001;stroke-linecap:butt;stroke-linejoin:round;stroke-miterlimit:10;stroke-dasharray:none;stroke-opacity:1"
             d="m 171.6,621.9 -49.6,0 0,45.3 99.2,0 0,-45.3 -49.6,0 z" /></g><path
           id="path3662"
           style="fill:#5c8526;fill-opacity:1;fill-rule:evenodd;stroke:none"
           d="m 272.4,621.8 -49.6,0 0,45.4 99.2,0 0,-45.4 -49.6,0 z" /><g
           id="g3664"><path
             id="path3666"
             style="fill:none;stroke:#000000;stroke-width:0.80000001;stroke-linecap:butt;stroke-linejoin:round;stroke-miterlimit:10;stroke-dasharray:none;stroke-opacity:1"
             d="m 272.4,621.8 -49.6,0 0,45.4 99.2,0 0,-45.4 -49.6,0 z" /></g><path
           id="path3668"
           style="fill:#5c8526;fill-opacity:1;fill-rule:evenodd;stroke:none"
           d="m 272.4,574.8 -49.6,0 0,45.4 99.2,0 0,-45.4 -49.6,0 z" /><g
           id="g3670"><path
             id="path3672"
             style="fill:none;stroke:#000000;stroke-width:0.80000001;stroke-linecap:butt;stroke-linejoin:round;stroke-miterlimit:10;stroke-dasharray:none;stroke-opacity:1"
             d="m 272.4,574.8 -49.6,0 0,45.4 99.2,0 0,-45.4 -49.6,0 z" /></g><path
           id="path3674"
           style="fill:#5c8526;fill-opacity:1;fill-rule:evenodd;stroke:none"
           d="m 171.6,574.8 -49.6,0 0,45.4 99.2,0 0,-45.4 -49.6,0 z" /><g
           id="g3676"><path
             id="path3678"
             style="fill:none;stroke:#000000;stroke-width:0.80000001;stroke-linecap:butt;stroke-linejoin:round;stroke-miterlimit:10;stroke-dasharray:none;stroke-opacity:1"
             d="m 171.6,574.8 -49.6,0 0,45.4 99.2,0 0,-45.4 -49.6,0 z" /></g><path
           id="path3680"
           style="fill:#5c8526;fill-opacity:1;fill-rule:evenodd;stroke:none"
           d="m 272.4,668.9 -49.6,0 0,45.4 99.2,0 0,-45.4 -49.6,0 z" /><g
           id="g3682"><path
             id="path3684"
             style="fill:none;stroke:#000000;stroke-width:0.80000001;stroke-linecap:butt;stroke-linejoin:round;stroke-miterlimit:10;stroke-dasharray:none;stroke-opacity:1"
             d="m 272.4,668.9 -49.6,0 0,45.4 99.2,0 0,-45.4 -49.6,0 z" /></g><g
           id="g3686"><text
             id="text3688"
             style="font-variant:normal;font-weight:normal;font-size:18px;font-family:'Liberation Sans';-inkscape-font-specification:LiberationSans;writing-mode:lr-tb;fill:#000000;fill-opacity:1;fill-rule:nonzero;stroke:none"
             transform="matrix(1,0,0,-1,420.2,701.6)"><tspan
               id="tspan3690"
               y="0"
               x="0 9.8999996 19.908001 24.893999 34.902 44.801998">34.75 </tspan></text>
</g><g
           id="g3692"><text
             id="text3694"
             style="font-variant:normal;font-weight:normal;font-size:18px;font-family:'Liberation Sans';-inkscape-font-specification:LiberationSans;writing-mode:lr-tb;fill:#000000;fill-opacity:1;fill-rule:nonzero;stroke:none"
             transform="matrix(1,0,0,-1,420.2,681.4)"><tspan
               id="tspan3696"
               y="0"
               x="0">x</tspan></text>
</g><g
           id="g3698"><text
             id="text3700"
             style="font-variant:normal;font-weight:normal;font-size:18px;font-family:'Liberation Sans';-inkscape-font-specification:LiberationSans;writing-mode:lr-tb;fill:#000000;fill-opacity:1;fill-rule:nonzero;stroke:none"
             transform="matrix(1,0,0,-1,420.2,661.3)"><tspan
               id="tspan3702"
               y="0"
               x="0 9.8999996 19.908001 24.893999 34.902 44.801998 49.877998 64.872002 79.865997">15.90 mm </tspan></text>
</g><g
           id="g3704"><text
             id="text3706"
             style="font-variant:normal;font-weight:normal;font-size:18px;font-family:'Liberation Sans';-inkscape-font-specification:LiberationSans;writing-mode:lr-tb;fill:#000000;fill-opacity:1;fill-rule:nonzero;stroke:none"
             transform="matrix(1,0,0,-1,420.2,641.1)"><tspan
               id="tspan3708"
               y="0"
               x="0 10.494 15.48 21.563999 26.549999 36.450001 41.526001 51.425999">+/- 0.10</tspan></text>
</g></g></g><rect
       transform="scale(1,-1)"
       y="-771.22577"
       x="56.952057"
       height="334.59332"
       width="455.61646"
       id="rect3851"
       style="opacity:1;fill:none;fill-opacity:1;stroke:#86ca26;stroke-width:1.60000002;stroke-miterlimit:4;stroke-dasharray:none;stroke-opacity:1" /></g></svg>