<?xml version="1.0" encoding="UTF-8" standalone="no"?>
<!-- Created with Inkscape (http://www.inkscape.org/) -->

<svg
   xmlns:dc="http://purl.org/dc/elements/1.1/"
   xmlns:cc="http://creativecommons.org/ns#"
   xmlns:rdf="http://www.w3.org/1999/02/22-rdf-syntax-ns#"
   xmlns:svg="http://www.w3.org/2000/svg"
   xmlns="http://www.w3.org/2000/svg"
   xmlns:sodipodi="http://sodipodi.sourceforge.net/DTD/sodipodi-0.dtd"
   xmlns:inkscape="http://www.inkscape.org/namespaces/inkscape"
   id="svg3710"
   version="1.1"
   inkscape:version="0.91 r13725"
   xml:space="preserve"
   width="659.02502"
   height="489.94861"
   viewBox="0 0 659.02502 489.94861"
   sodipodi:docname="5mm_wafer_diagram.svg"><metadata
     id="metadata3716"><rdf:RDF><cc:Work
         rdf:about=""><dc:format>image/svg+xml</dc:format><dc:type
           rdf:resource="http://purl.org/dc/dcmitype/StillImage" /><dc:title></dc:title></cc:Work></rdf:RDF></metadata><defs
     id="defs3714"><clipPath
       clipPathUnits="userSpaceOnUse"
       id="clipPath3724"><path
         d="M 0,0 612,0 612,792 0,792 0,0 Z"
         id="path3726"
         inkscape:connector-curvature="0"
         style="clip-rule:evenodd" /></clipPath></defs><sodipodi:namedview
     pagecolor="#ffffff"
     bordercolor="#666666"
     borderopacity="1"
     objecttolerance="10"
     gridtolerance="10"
     guidetolerance="10"
     inkscape:pageopacity="0"
     inkscape:pageshadow="2"
     inkscape:window-width="1243"
     inkscape:window-height="1073"
     id="namedview3712"
     showgrid="false"
     inkscape:zoom="0.67425131"
     inkscape:cx="495.84654"
     inkscape:cy="514.1197"
     inkscape:window-x="841"
     inkscape:window-y="265"
     inkscape:window-maximized="0"
     inkscape:current-layer="g3720"
     fit-margin-top="0"
     fit-margin-left="0"
     fit-margin-right="0"
     fit-margin-bottom="0" /><g
     id="g3718"
     inkscape:groupmode="layer"
     inkscape:label="5mm_wafer_diagram"
     transform="matrix(1.25,0,0,-1.25,-27.179402,978.38037)"><g
       id="g3720"><g
         id="g3722"
         clip-path="url(#clipPath3724)"><path
           d="M 0,792 612,792 612,0 0,0 0,792 Z"
           style="fill:#ffffff;fill-opacity:1;fill-rule:evenodd;stroke:none"
           id="path3728"
           inkscape:connector-curvature="0" /><path
           d="m 236.5,712.2 c 81.7,0 144,-62.4 144,-144 0,-81.6 -62.3,-144 -144,-144 -81.6,0 -144,62.4 -144,144 0,81.6 62.4,144 144,144 z m -144,0 0,0 z m 288.1,-288 0,0 z"
           style="fill:#99ccff;fill-opacity:1;fill-rule:evenodd;stroke:none"
           id="path3730"
           inkscape:connector-curvature="0" /><g
           id="g3732"><path
             d="m 236.5,712.2 c 81.7,0 144,-62.4 144,-144 0,-81.6 -62.3,-144 -144,-144 -81.6,0 -144,62.4 -144,144 0,81.6 62.4,144 144,144 z"
             style="fill:none;stroke:#000000;stroke-width:0.80000001;stroke-linecap:butt;stroke-linejoin:round;stroke-miterlimit:10;stroke-dasharray:none;stroke-opacity:1"
             id="path3734"
             inkscape:connector-curvature="0" /></g><g
           id="g3736"><path
             d="m 92.5,712.2 0,0 z"
             style="fill:none;stroke:#000000;stroke-width:0.80000001;stroke-linecap:butt;stroke-linejoin:round;stroke-miterlimit:10;stroke-dasharray:none;stroke-opacity:1"
             id="path3738"
             inkscape:connector-curvature="0" /></g><g
           id="g3740"><path
             d="m 380.6,424.2 0,0 z"
             style="fill:none;stroke:#000000;stroke-width:0.80000001;stroke-linecap:butt;stroke-linejoin:round;stroke-miterlimit:10;stroke-dasharray:none;stroke-opacity:1"
             id="path3742"
             inkscape:connector-curvature="0" /></g><g
           id="g3744"><text
             transform="matrix(1,0,0,-1,429.1,691.5)"
             style="font-variant:normal;font-weight:normal;font-size:18px;font-family:'Liberation Sans';-inkscape-font-specification:LiberationSans;writing-mode:lr-tb;fill:#000000;fill-opacity:1;fill-rule:nonzero;stroke:none"
             id="text3746"><tspan
               x="0 16.398001 26.298 31.374001 41.273998 47.268002 52.344002 61.344002 71.244003 76.230003"
               y="0"
               sodipodi:role="line"
               id="tspan3748">Wafer cut:</tspan></text>
</g><g
           id="g3750"><text
             transform="matrix(1,0,0,-1,429.1,671.4)"
             style="font-variant:normal;font-weight:normal;font-size:18px;font-family:'Liberation Sans';-inkscape-font-specification:LiberationSans;writing-mode:lr-tb;fill:#000000;fill-opacity:1;fill-rule:nonzero;stroke:none"
             id="text3752"><tspan
               x="0 10.008 14.994 25.002001 35.009998 50.004002 64.998001 69.984001 79.776001"
               y="0"
               sodipodi:role="line"
               id="tspan3754">5.00mm ± </tspan></text>
</g><g
           id="g3756"><text
             transform="matrix(1,0,0,-1,429.1,651.2)"
             style="font-variant:normal;font-weight:normal;font-size:18px;font-family:'Liberation Sans';-inkscape-font-specification:LiberationSans;writing-mode:lr-tb;fill:#000000;fill-opacity:1;fill-rule:nonzero;stroke:none"
             id="text3758"><tspan
               x="0 10.008 14.994 25.002001 35.009998 50.004002 64.998001 69.984001 79.884003 85.968002 89.874001 99.882004"
               y="0"
               sodipodi:role="line"
               id="tspan3760">0.05mm grid </tspan></text>
</g><g
           id="g3762"><text
             transform="matrix(1,0,0,-1,429.1,631.1)"
             style="font-variant:normal;font-weight:normal;font-size:18px;font-family:'Liberation Sans';-inkscape-font-specification:LiberationSans;writing-mode:lr-tb;fill:#000000;fill-opacity:1;fill-rule:nonzero;stroke:none"
             id="text3764"><tspan
               x="0 10.008 19.007999 29.016001 35.009998 39.995998 50.004002 59.903999 64.980003 68.886002 74.879997 84.888"
               y="0"
               sodipodi:role="line"
               id="tspan3766">over entire </tspan></text>
</g><g
           id="g3768"><text
             transform="matrix(1,0,0,-1,429.1,610.9)"
             style="font-variant:normal;font-weight:normal;font-size:18px;font-family:'Liberation Sans';-inkscape-font-specification:LiberationSans;writing-mode:lr-tb;fill:#000000;fill-opacity:1;fill-rule:nonzero;stroke:none"
             id="text3770"><tspan
               x="0 12.708 22.608 27.594 37.602001"
               y="0"
               sodipodi:role="line"
               id="tspan3772">wafer</tspan></text>
</g><g
           id="g3774"><text
             transform="matrix(1,0,0,-1,208.1,747.7)"
             style="font-variant:normal;font-weight:normal;font-size:14px;font-family:'Liberation Sans';-inkscape-font-specification:LiberationSans;writing-mode:lr-tb;fill:#000000;fill-opacity:1;fill-rule:nonzero;stroke:none"
             id="text3776"><tspan
               x="0 7.7839999 10.878 18.662001 26.544001 30.436001 34.425999 42.209999 46.816002 54.599998 62.481998 70.181999 77.966003"
               y="0"
               sodipodi:role="line"
               id="tspan3778">Line through </tspan></text>
</g><g
           id="g3780"><text
             transform="matrix(1,0,0,-1,208.1,732)"
             style="font-variant:normal;font-weight:normal;font-size:14px;font-family:'Liberation Sans';-inkscape-font-specification:LiberationSans;writing-mode:lr-tb;fill:#000000;fill-opacity:1;fill-rule:nonzero;stroke:none"
             id="text3782"><tspan
               x="0 7.0840001 14.868 22.652 26.642 34.425999 39.032001 43.021999 50.806 54.796001 58.688 68.683998 76.468002 80.458 88.157997"
               y="0"
               sodipodi:role="line"
               id="tspan3784">center of wafer</tspan></text>
</g><g
           id="g3786"><path
             d="m 237.2,727.3 0,-329.5"
             style="fill:none;stroke:#000000;stroke-width:0.80000001;stroke-linecap:butt;stroke-linejoin:round;stroke-miterlimit:10;stroke-dasharray:none;stroke-opacity:1"
             id="path3788"
             inkscape:connector-curvature="0" /></g><g
           id="g3790"><path
             d="m 68.9,563.8 343.9,0"
             style="fill:none;stroke:#000000;stroke-width:0.80000001;stroke-linecap:butt;stroke-linejoin:round;stroke-miterlimit:10;stroke-dasharray:none;stroke-opacity:1"
             id="path3792"
             inkscape:connector-curvature="0" /></g><g
           id="g3794"><text
             transform="matrix(1,0,0,-1,420.7,566.3)"
             style="font-variant:normal;font-weight:normal;font-size:14px;font-family:'Liberation Sans';-inkscape-font-specification:LiberationSans;writing-mode:lr-tb;fill:#000000;fill-opacity:1;fill-rule:nonzero;stroke:none"
             id="text3796"><tspan
               x="0 7.7839999 10.878 18.662001 26.544001 30.436001 34.425999 42.209999 46.816002 54.599998 62.481998 70.181999 77.966003"
               y="0"
               sodipodi:role="line"
               id="tspan3798">Line through </tspan></text>
</g><g
           id="g3800"><text
             transform="matrix(1,0,0,-1,420.7,550.6)"
             style="font-variant:normal;font-weight:normal;font-size:14px;font-family:'Liberation Sans';-inkscape-font-specification:LiberationSans;writing-mode:lr-tb;fill:#000000;fill-opacity:1;fill-rule:nonzero;stroke:none"
             id="text3802"><tspan
               x="0 7.0840001 14.868 22.652 26.642 34.425999 39.032001 43.021999 50.806 54.796001 58.688 68.683998 76.468002 80.458 88.157997"
               y="0"
               sodipodi:role="line"
               id="tspan3804">center of wafer</tspan></text>
</g><g
           id="g3806"><text
             transform="matrix(1,0,0,-1,423.6,730.6)"
             style="font-variant:normal;font-weight:normal;font-size:18px;font-family:'Liberation Sans';-inkscape-font-specification:LiberationSans;writing-mode:lr-tb;fill:#000000;fill-opacity:1;fill-rule:nonzero;stroke:none"
             id="text3808"><tspan
               x="0 9.8999996 19.908001 29.916 44.91 59.813999 64.889999 77.489998 87.498001 92.484001 102.492"
               y="0"
               sodipodi:role="line"
               id="tspan3810">100mm wafer</tspan></text>
</g><path
           d="m 244,564.2 -7.2,0 0,14.4 14.4,0 0,-14.4 -7.2,0 z"
           style="fill:#b80047;fill-opacity:1;fill-rule:evenodd;stroke:none"
           id="path3812"
           inkscape:connector-curvature="0" /><g
           id="g3814"><path
             d="m 244,564.2 -7.2,0 0,14.4 14.4,0 0,-14.4 -7.2,0 z"
             style="fill:none;stroke:#000000;stroke-width:0.80000001;stroke-linecap:butt;stroke-linejoin:round;stroke-miterlimit:10;stroke-dasharray:none;stroke-opacity:1"
             id="path3816"
             inkscape:connector-curvature="0" /></g><path
           d="m 264.9,574.2 76.2,41.2"
           style="fill:none;stroke:#000000;stroke-width:0.1;stroke-linecap:butt;stroke-linejoin:miter;stroke-miterlimit:10;stroke-dasharray:none;stroke-opacity:1"
           id="path3818"
           inkscape:connector-curvature="0" /><path
           d="m 351.9,621.2 -13.3,-2.3 4.1,-7.5 9.2,9.8 z"
           style="fill:#000000;fill-opacity:1;fill-rule:evenodd;stroke:none"
           id="path3820"
           inkscape:connector-curvature="0" /><text
           transform="matrix(1,0,0,-1,244.9,623.3)"
           style="font-variant:normal;font-weight:normal;font-size:14px;font-family:'Liberation Sans';-inkscape-font-specification:LiberationSans;writing-mode:lr-tb;fill:#000000;fill-opacity:1;fill-rule:nonzero;stroke:none"
           id="text3822"><tspan
             x="0 10.192 17.976 21.868 25.858 33.641998 38.332001 41.425999 49.209999 53.102001 60.886002 67.788002 75.571999 80.178001 84.167999 94.164001 101.948 109.732 112.826 120.61"
             y="0"
             sodipodi:role="line"
             id="tspan3824">Cut grid over whole </tspan></text>
<text
           transform="matrix(1,0,0,-1,244.9,607.6)"
           style="font-variant:normal;font-weight:normal;font-size:14px;font-family:'Liberation Sans';-inkscape-font-specification:LiberationSans;writing-mode:lr-tb;fill:#000000;fill-opacity:1;fill-rule:nonzero;stroke:none"
           id="text3826"><tspan
             x="0 9.8979998 17.681999 21.672001 29.455999"
             y="0"
             sodipodi:role="line"
             id="tspan3828">wafer</tspan></text>
</g></g></g></svg>